# xmcd
#
# Track frame offsets:
# 150
# 15678
# 29464
# 50701
# 69511
# 95397
# 118384
# 144774
# 164581
# 182772
# 204654
# 248108
# 269911
# 288062
# 307269
# 328191
# 348954
#
# Disc length: 4963 seconds
#
# Revision: 1
# Processed by: cddbd v1.5.1PL0 Copyright (c) Steve Scherf et al.
# Submitted via: CedeCatalogueitor 2.6.0.4 http://personales.ya.com/cdcatalogueitor
#
DISCID=0c136111
DTITLE=Elton John - Greatest Hits 1970-2002 CD2
DYEAR=1900
DGENRE=
TTITLE0=Blue Eyes
TTITLE1=I'm Still Standing
TTITLE2=Iguess That's Why They Call It The Blues
TTITLE3=Sad Songs (say So Much)
TTITLE4=Nikita
TTITLE5=Sacrifice
TTITLE6=One
TTITLE7=Kiss The Bride
TTITLE8=Can You Feel The Love Tonight
TTITLE9=Circle Of Life
TTITLE10=Believe
TTITLE11=Made In England
TTITLE12=Something About The Way You Look Tonight
TTITLE13=Written In The Stars
TTITLE14=I Want Love
TTITLE15=Train Don´t Stop There Anymore
TTITLE16=Song For Guy
EXTD=
EXTT0=
EXTT1=
EXTT2=
EXTT3=
EXTT4=
EXTT5=
EXTT6=
EXTT7=
EXTT8=
EXTT9=
EXTT10=
EXTT11=
EXTT12=
EXTT13=
EXTT14=
EXTT15=
EXTT16=
PLAYORDER=
